<?xml version="1.0" standalone="no"?><svg xmlns="http://www.w3.org/2000/svg" viewBox="0 0 1440 320"><path fill="#fff" fill-opacity="1" d="M0,160L26.7,138.7C53.3,117,107,75,160,80C213.3,85,267,139,320,181.3C373.3,224,427,256,480,229.3C533.3,203,587,117,640,80C693.3,43,747,53,800,90.7C853.3,128,907,192,960,197.3C1013.3,203,1067,149,1120,128C1173.3,107,1227,117,1280,133.3C1333.3,149,1387,171,1413,181.3L1440,192L1440,320L1413.3,320C1386.7,320,1333,320,1280,320C1226.7,320,1173,320,1120,320C1066.7,320,1013,320,960,320C906.7,320,853,320,800,320C746.7,320,693,320,640,320C586.7,320,533,320,480,320C426.7,320,373,320,320,320C266.7,320,213,320,160,320C106.7,320,53,320,27,320L0,320Z"></path></svg>